<svg width="1184" height="519" viewBox="0 0 1184 519" fill="none" xmlns="http://www.w3.org/2000/svg">
<g clip-path="url(#clip0_222_13086)">
<mask id="mask0_222_13086" style="mask-type:alpha" maskUnits="userSpaceOnUse" x="0" y="0" width="1184" height="530">
<rect width="1184" height="530" fill="url(#paint0_radial_222_13086)"/>
</mask>
<g mask="url(#mask0_222_13086)">
<rect x="-9.5" y="-1.25" width="32.5" height="32.5" stroke="#E2E7F0" stroke-width="1.5"/>
<rect x="23" y="-1.25" width="32.5" height="32.5" fill="#E2E7F0" fill-opacity="0.3" stroke="#E2E7F0" stroke-width="1.5"/>
<rect x="55.5" y="-1.25" width="32.5" height="32.5" stroke="#E2E7F0" stroke-width="1.5"/>
<rect x="88" y="-1.25" width="32.5" height="32.5" stroke="#E2E7F0" stroke-width="1.5"/>
<rect x="120.5" y="-1.25" width="32.5" height="32.5" stroke="#E2E7F0" stroke-width="1.5"/>
<rect x="153" y="-1.25" width="32.5" height="32.5" stroke="#E2E7F0" stroke-width="1.5"/>
<rect x="185.5" y="-1.25" width="32.5" height="32.5" stroke="#E2E7F0" stroke-width="1.5"/>
<rect x="218" y="-1.25" width="32.5" height="32.5" fill="#E2E7F0" fill-opacity="0.3" stroke="#E2E7F0" stroke-width="1.5"/>
<rect x="250.5" y="-1.25" width="32.5" height="32.5" stroke="#E2E7F0" stroke-width="1.5"/>
<rect x="283" y="-1.25" width="32.5" height="32.5" stroke="#E2E7F0" stroke-width="1.5"/>
<rect x="315.5" y="-1.25" width="32.5" height="32.5" stroke="#E2E7F0" stroke-width="1.5"/>
<rect x="640.5" y="-1.25" width="32.5" height="32.5" stroke="#E2E7F0" stroke-width="1.5"/>
<rect x="673" y="-1.25" width="32.5" height="32.5" stroke="#E2E7F0" stroke-width="1.5"/>
<rect x="705.5" y="-1.25" width="32.5" height="32.5" stroke="#E2E7F0" stroke-width="1.5"/>
<rect x="738" y="-1.25" width="32.5" height="32.5" stroke="#E2E7F0" stroke-width="1.5"/>
<rect x="770.5" y="-1.25" width="32.5" height="32.5" fill="#E2E7F0" fill-opacity="0.3" stroke="#E2E7F0" stroke-width="1.5"/>
<rect x="803" y="-1.25" width="32.5" height="32.5" stroke="#E2E7F0" stroke-width="1.5"/>
<rect x="835.5" y="-1.25" width="32.5" height="32.5" stroke="#E2E7F0" stroke-width="1.5"/>
<rect x="868" y="-1.25" width="32.5" height="32.5" fill="#E2E7F0" fill-opacity="0.3" stroke="#E2E7F0" stroke-width="1.5"/>
<rect x="900.5" y="-1.25" width="32.5" height="32.5" stroke="#E2E7F0" stroke-width="1.5"/>
<rect x="933" y="-1.25" width="32.5" height="32.5" stroke="#E2E7F0" stroke-width="1.5"/>
<rect x="965.5" y="-1.25" width="32.5" height="32.5" stroke="#E2E7F0" stroke-width="1.5"/>
<rect x="998" y="-1.25" width="32.5" height="32.5" stroke="#E2E7F0" stroke-width="1.5"/>
<rect x="1030.5" y="-1.25" width="32.5" height="32.5" stroke="#E2E7F0" stroke-width="1.5"/>
<rect x="1063" y="-1.25" width="32.5" height="32.5" stroke="#E2E7F0" stroke-width="1.5"/>
<rect x="1095.5" y="-1.25" width="32.5" height="32.5" stroke="#E2E7F0" stroke-width="1.5"/>
<rect x="1128" y="-1.25" width="32.5" height="32.5" stroke="#E2E7F0" stroke-width="1.5"/>
<rect x="1160.5" y="-1.25" width="32.5" height="32.5" fill="#E2E7F0" fill-opacity="0.3" stroke="#E2E7F0" stroke-width="1.5"/>
<rect x="-9.5" y="31.25" width="32.5" height="32.5" stroke="#E2E7F0" stroke-width="1.5"/>
<rect x="23" y="31.25" width="32.5" height="32.5" stroke="#E2E7F0" stroke-width="1.5"/>
<rect x="55.5" y="31.25" width="32.5" height="32.5" stroke="#E2E7F0" stroke-width="1.5"/>
<rect x="88" y="31.25" width="32.5" height="32.5" stroke="#E2E7F0" stroke-width="1.5"/>
<rect x="120.5" y="31.25" width="32.5" height="32.5" stroke="#E2E7F0" stroke-width="1.5"/>
<rect x="153" y="31.25" width="32.5" height="32.5" fill="#E2E7F0" fill-opacity="0.3" stroke="#E2E7F0" stroke-width="1.5"/>
<rect x="185.5" y="31.25" width="32.5" height="32.5" stroke="#E2E7F0" stroke-width="1.5"/>
<rect x="315.5" y="31.25" width="32.5" height="32.5" stroke="#E2E7F0" stroke-width="1.5"/>
<rect x="348" y="31.25" width="32.5" height="32.5" stroke="#E2E7F0" stroke-width="1.5"/>
<rect x="380.5" y="31.25" width="32.5" height="32.5" stroke="#E2E7F0" stroke-width="1.5"/>
<rect x="413" y="31.25" width="32.5" height="32.5" stroke="#E2E7F0" stroke-width="1.5"/>
<rect x="445.5" y="31.25" width="32.5" height="32.5" stroke="#E2E7F0" stroke-width="1.5"/>
<rect x="478" y="31.25" width="32.5" height="32.5" stroke="#E2E7F0" stroke-width="1.5"/>
<rect x="965.5" y="31.25" width="32.5" height="32.5" stroke="#E2E7F0" stroke-width="1.5"/>
<rect x="998" y="31.25" width="32.5" height="32.5" fill="#E2E7F0" fill-opacity="0.3" stroke="#E2E7F0" stroke-width="1.5"/>
<rect x="1030.5" y="31.25" width="32.5" height="32.5" stroke="#E2E7F0" stroke-width="1.5"/>
<rect x="1063" y="31.25" width="32.5" height="32.5" stroke="#E2E7F0" stroke-width="1.5"/>
<rect x="1095.5" y="31.25" width="32.5" height="32.5" stroke="#E2E7F0" stroke-width="1.5"/>
<rect x="1128" y="31.25" width="32.5" height="32.5" stroke="#E2E7F0" stroke-width="1.5"/>
<rect x="1160.5" y="31.25" width="32.5" height="32.5" stroke="#E2E7F0" stroke-width="1.5"/>
<rect x="-9.5" y="63.75" width="32.5" height="32.5" stroke="#E2E7F0" stroke-width="1.5"/>
<rect x="23" y="63.75" width="32.5" height="32.5" stroke="#E2E7F0" stroke-width="1.5"/>
<rect x="55.5" y="63.75" width="32.5" height="32.5" stroke="#E2E7F0" stroke-width="1.5"/>
<rect x="88" y="63.75" width="32.5" height="32.5" stroke="#E2E7F0" stroke-width="1.5"/>
<rect x="120.5" y="63.75" width="32.5" height="32.5" stroke="#E2E7F0" stroke-width="1.5"/>
<rect x="315.5" y="63.75" width="32.5" height="32.5" stroke="#E2E7F0" stroke-width="1.5"/>
<rect x="640.5" y="63.75" width="32.5" height="32.5" stroke="#E2E7F0" stroke-width="1.5"/>
<rect x="673" y="63.75" width="32.5" height="32.5" stroke="#E2E7F0" stroke-width="1.5"/>
<rect x="705.5" y="63.75" width="32.5" height="32.5" stroke="#E2E7F0" stroke-width="1.5"/>
<rect x="738" y="63.75" width="32.5" height="32.5" stroke="#E2E7F0" stroke-width="1.5"/>
<rect x="770.5" y="63.75" width="32.5" height="32.5" stroke="#E2E7F0" stroke-width="1.5"/>
<rect x="803" y="63.75" width="32.5" height="32.5" stroke="#E2E7F0" stroke-width="1.5"/>
<rect x="835.5" y="63.75" width="32.5" height="32.5" stroke="#E2E7F0" stroke-width="1.5"/>
<rect x="1030.5" y="63.75" width="32.5" height="32.5" stroke="#E2E7F0" stroke-width="1.5"/>
<rect x="1063" y="63.75" width="32.5" height="32.5" stroke="#E2E7F0" stroke-width="1.5"/>
<rect x="1095.5" y="63.75" width="32.5" height="32.5" stroke="#E2E7F0" stroke-width="1.5"/>
<rect x="1128" y="63.75" width="32.5" height="32.5" stroke="#E2E7F0" stroke-width="1.5"/>
<rect x="1160.5" y="63.75" width="32.5" height="32.5" stroke="#E2E7F0" stroke-width="1.5"/>
<rect x="-9.5" y="96.25" width="32.5" height="32.5" stroke="#E2E7F0" stroke-width="1.5"/>
<rect x="23" y="96.25" width="32.5" height="32.5" stroke="#E2E7F0" stroke-width="1.5"/>
<rect x="55.5" y="96.25" width="32.5" height="32.5" stroke="#E2E7F0" stroke-width="1.5"/>
<rect x="88" y="96.25" width="32.5" height="32.5" stroke="#E2E7F0" stroke-width="1.5"/>
<rect x="120.5" y="96.25" width="32.5" height="32.5" stroke="#E2E7F0" stroke-width="1.5"/>
<rect x="153" y="96.25" width="32.5" height="32.5" stroke="#E2E7F0" stroke-width="1.5"/>
<rect x="185.5" y="96.25" width="32.5" height="32.5" stroke="#E2E7F0" stroke-width="1.5"/>
<rect x="835.5" y="96.25" width="32.5" height="32.5" stroke="#E2E7F0" stroke-width="1.5"/>
<rect x="900.5" y="96.25" width="32.5" height="32.5" fill="#E2E7F0" fill-opacity="0.3" stroke="#E2E7F0" stroke-width="1.5"/>
<rect x="933" y="96.25" width="32.5" height="32.5" stroke="#E2E7F0" stroke-width="1.5"/>
<rect x="965.5" y="96.25" width="32.5" height="32.5" stroke="#E2E7F0" stroke-width="1.5"/>
<rect x="998" y="96.25" width="32.5" height="32.5" stroke="#E2E7F0" stroke-width="1.5"/>
<rect x="1030.5" y="96.25" width="32.5" height="32.5" stroke="#E2E7F0" stroke-width="1.5"/>
<rect x="1063" y="96.25" width="32.5" height="32.5" fill="#E2E7F0" fill-opacity="0.3" stroke="#E2E7F0" stroke-width="1.5"/>
<rect x="1095.5" y="96.25" width="32.5" height="32.5" stroke="#E2E7F0" stroke-width="1.5"/>
<rect x="1128" y="96.25" width="32.5" height="32.5" stroke="#E2E7F0" stroke-width="1.5"/>
<rect x="1160.5" y="96.25" width="32.5" height="32.5" fill="#E2E7F0" fill-opacity="0.3" stroke="#E2E7F0" stroke-width="1.5"/>
<rect x="-9.5" y="128.75" width="32.5" height="32.5" fill="#E2E7F0" fill-opacity="0.3" stroke="#E2E7F0" stroke-width="1.5"/>
<rect x="23" y="128.75" width="32.5" height="32.5" stroke="#E2E7F0" stroke-width="1.5"/>
<rect x="153" y="128.75" width="32.5" height="32.5" fill="#E2E7F0" fill-opacity="0.3" stroke="#E2E7F0" stroke-width="1.5"/>
<rect x="185.5" y="128.75" width="32.5" height="32.5" stroke="#E2E7F0" stroke-width="1.5"/>
<rect x="250.5" y="128.75" width="32.5" height="32.5" stroke="#E2E7F0" stroke-width="1.5"/>
<rect x="835.5" y="128.75" width="32.5" height="32.5" stroke="#E2E7F0" stroke-width="1.5"/>
<rect x="868" y="128.75" width="32.5" height="32.5" stroke="#E2E7F0" stroke-width="1.5"/>
<rect x="965.5" y="128.75" width="32.5" height="32.5" stroke="#E2E7F0" stroke-width="1.5"/>
<rect x="998" y="128.75" width="32.5" height="32.5" stroke="#E2E7F0" stroke-width="1.5"/>
<rect x="1030.5" y="128.75" width="32.5" height="32.5" stroke="#E2E7F0" stroke-width="1.5"/>
<rect x="1160.5" y="128.75" width="32.5" height="32.5" stroke="#E2E7F0" stroke-width="1.5"/>
<rect x="-9.5" y="161.25" width="32.5" height="32.5" stroke="#E2E7F0" stroke-width="1.5"/>
<rect x="23" y="161.25" width="32.5" height="32.5" stroke="#E2E7F0" stroke-width="1.5"/>
<rect x="55.5" y="161.25" width="32.5" height="32.5" stroke="#E2E7F0" stroke-width="1.5"/>
<rect x="88" y="161.25" width="32.5" height="32.5" stroke="#E2E7F0" stroke-width="1.5"/>
<rect x="120.5" y="161.25" width="32.5" height="32.5" stroke="#E2E7F0" stroke-width="1.5"/>
<rect x="283" y="161.25" width="32.5" height="32.5" stroke="#E2E7F0" stroke-width="1.5"/>
<rect x="315.5" y="161.25" width="32.5" height="32.5" stroke="#E2E7F0" stroke-width="1.5"/>
<rect x="640.5" y="161.25" width="32.5" height="32.5" stroke="#E2E7F0" stroke-width="1.5"/>
<rect x="673" y="161.25" width="32.5" height="32.5" stroke="#E2E7F0" stroke-width="1.5"/>
<rect x="705.5" y="161.25" width="32.5" height="32.5" stroke="#E2E7F0" stroke-width="1.5"/>
<rect x="738" y="161.25" width="32.5" height="32.5" stroke="#E2E7F0" stroke-width="1.5"/>
<rect x="770.5" y="161.25" width="32.5" height="32.5" stroke="#E2E7F0" stroke-width="1.5"/>
<rect x="803" y="161.25" width="32.5" height="32.5" stroke="#E2E7F0" stroke-width="1.5"/>
<rect x="868" y="161.25" width="32.5" height="32.5" stroke="#E2E7F0" stroke-width="1.5"/>
<rect x="900.5" y="161.25" width="32.5" height="32.5" fill="#E2E7F0" fill-opacity="0.3" stroke="#E2E7F0" stroke-width="1.5"/>
<rect x="1030.5" y="161.25" width="32.5" height="32.5" stroke="#E2E7F0" stroke-width="1.5"/>
<rect x="1063" y="161.25" width="32.5" height="32.5" stroke="#E2E7F0" stroke-width="1.5"/>
<rect x="1095.5" y="161.25" width="32.5" height="32.5" stroke="#E2E7F0" stroke-width="1.5"/>
<rect x="1128" y="161.25" width="32.5" height="32.5" stroke="#E2E7F0" stroke-width="1.5"/>
<rect x="1160.5" y="161.25" width="32.5" height="32.5" stroke="#E2E7F0" stroke-width="1.5"/>
<rect x="-9.5" y="193.75" width="32.5" height="32.5" stroke="#E2E7F0" stroke-width="1.5"/>
<rect x="23" y="193.75" width="32.5" height="32.5" stroke="#E2E7F0" stroke-width="1.5"/>
<rect x="55.5" y="193.75" width="32.5" height="32.5" stroke="#E2E7F0" stroke-width="1.5"/>
<rect x="88" y="193.75" width="32.5" height="32.5" stroke="#E2E7F0" stroke-width="1.5"/>
<rect x="120.5" y="193.75" width="32.5" height="32.5" stroke="#E2E7F0" stroke-width="1.5"/>
<rect x="153" y="193.75" width="32.5" height="32.5" stroke="#E2E7F0" stroke-width="1.5"/>
<rect x="185.5" y="193.75" width="32.5" height="32.5" stroke="#E2E7F0" stroke-width="1.5"/>
<rect x="933" y="193.75" width="32.5" height="32.5" stroke="#E2E7F0" stroke-width="1.5"/>
<rect x="965.5" y="193.75" width="32.5" height="32.5" stroke="#E2E7F0" stroke-width="1.5"/>
<rect x="998" y="193.75" width="32.5" height="32.5" stroke="#E2E7F0" stroke-width="1.5"/>
<rect x="1030.5" y="193.75" width="32.5" height="32.5" stroke="#E2E7F0" stroke-width="1.5"/>
<rect x="1063" y="193.75" width="32.5" height="32.5" fill="#E2E7F0" fill-opacity="0.3" stroke="#E2E7F0" stroke-width="1.5"/>
<rect x="1095.5" y="193.75" width="32.5" height="32.5" stroke="#E2E7F0" stroke-width="1.5"/>
<rect x="1128" y="193.75" width="32.5" height="32.5" stroke="#E2E7F0" stroke-width="1.5"/>
<rect x="1160.5" y="193.75" width="32.5" height="32.5" stroke="#E2E7F0" stroke-width="1.5"/>
<rect x="-9.5" y="226.25" width="32.5" height="32.5" stroke="#E2E7F0" stroke-width="1.5"/>
<rect x="23" y="226.25" width="32.5" height="32.5" stroke="#E2E7F0" stroke-width="1.5"/>
<rect x="153" y="226.25" width="32.5" height="32.5" fill="#E2E7F0" fill-opacity="0.3" stroke="#E2E7F0" stroke-width="1.5"/>
<rect x="185.5" y="226.25" width="32.5" height="32.5" stroke="#E2E7F0" stroke-width="1.5"/>
<rect x="250.5" y="226.25" width="32.5" height="32.5" stroke="#E2E7F0" stroke-width="1.5"/>
<rect x="283" y="226.25" width="32.5" height="32.5" stroke="#E2E7F0" stroke-width="1.5"/>
<rect x="900.5" y="226.25" width="32.5" height="32.5" stroke="#E2E7F0" stroke-width="1.5"/>
<rect x="933" y="226.25" width="32.5" height="32.5" fill="#E2E7F0" fill-opacity="0.3" stroke="#E2E7F0" stroke-width="1.5"/>
<rect x="965.5" y="226.25" width="32.5" height="32.5" stroke="#E2E7F0" stroke-width="1.5"/>
<rect x="998" y="226.25" width="32.5" height="32.5" stroke="#E2E7F0" stroke-width="1.5"/>
<rect x="1030.5" y="226.25" width="32.5" height="32.5" stroke="#E2E7F0" stroke-width="1.5"/>
<rect x="1160.5" y="226.25" width="32.5" height="32.5" stroke="#E2E7F0" stroke-width="1.5"/>
<rect x="-9.5" y="258.75" width="32.5" height="32.5" stroke="#E2E7F0" stroke-width="1.5"/>
<rect x="23" y="258.75" width="32.5" height="32.5" stroke="#E2E7F0" stroke-width="1.5"/>
<rect x="55.5" y="258.75" width="32.5" height="32.5" stroke="#E2E7F0" stroke-width="1.5"/>
<rect x="88" y="258.75" width="32.5" height="32.5" stroke="#E2E7F0" stroke-width="1.5"/>
<rect x="120.5" y="258.75" width="32.5" height="32.5" fill="#E2E7F0" fill-opacity="0.3" stroke="#E2E7F0" stroke-width="1.5"/>
<rect x="283" y="258.75" width="32.5" height="32.5" stroke="#E2E7F0" stroke-width="1.5"/>
<rect x="315.5" y="258.75" width="32.5" height="32.5" stroke="#E2E7F0" stroke-width="1.5"/>
<rect x="640.5" y="258.75" width="32.5" height="32.5" stroke="#E2E7F0" stroke-width="1.5"/>
<rect x="673" y="258.75" width="32.5" height="32.5" stroke="#E2E7F0" stroke-width="1.5"/>
<rect x="705.5" y="258.75" width="32.5" height="32.5" stroke="#E2E7F0" stroke-width="1.5"/>
<rect x="738" y="258.75" width="32.5" height="32.5" stroke="#E2E7F0" stroke-width="1.5"/>
<rect x="770.5" y="258.75" width="32.5" height="32.5" stroke="#E2E7F0" stroke-width="1.5"/>
<rect x="803" y="258.75" width="32.5" height="32.5" stroke="#E2E7F0" stroke-width="1.5"/>
<rect x="835.5" y="258.75" width="32.5" height="32.5" stroke="#E2E7F0" stroke-width="1.5"/>
<rect x="868" y="258.75" width="32.5" height="32.5" stroke="#E2E7F0" stroke-width="1.5"/>
<rect x="1063" y="258.75" width="32.5" height="32.5" stroke="#E2E7F0" stroke-width="1.5"/>
<rect x="1095.5" y="258.75" width="32.5" height="32.5" stroke="#E2E7F0" stroke-width="1.5"/>
<rect x="1128" y="258.75" width="32.5" height="32.5" stroke="#E2E7F0" stroke-width="1.5"/>
<rect x="1160.5" y="258.75" width="32.5" height="32.5" stroke="#E2E7F0" stroke-width="1.5"/>
<rect x="-9.5" y="291.25" width="32.5" height="32.5" stroke="#E2E7F0" stroke-width="1.5"/>
<rect x="23" y="291.25" width="32.5" height="32.5" stroke="#E2E7F0" stroke-width="1.5"/>
<rect x="55.5" y="291.25" width="32.5" height="32.5" fill="#E2E7F0" fill-opacity="0.3" stroke="#E2E7F0" stroke-width="1.5"/>
<rect x="88" y="291.25" width="32.5" height="32.5" stroke="#E2E7F0" stroke-width="1.5"/>
<rect x="120.5" y="291.25" width="32.5" height="32.5" stroke="#E2E7F0" stroke-width="1.5"/>
<rect x="153" y="291.25" width="32.5" height="32.5" stroke="#E2E7F0" stroke-width="1.5"/>
<rect x="185.5" y="291.25" width="32.5" height="32.5" stroke="#E2E7F0" stroke-width="1.5"/>
<rect x="283" y="291.25" width="32.5" height="32.5" stroke="#E2E7F0" stroke-width="1.5"/>
<rect x="868" y="291.25" width="32.5" height="32.5" stroke="#E2E7F0" stroke-width="1.5"/>
<rect x="900.5" y="291.25" width="32.5" height="32.5" stroke="#E2E7F0" stroke-width="1.5"/>
<rect x="1063" y="291.25" width="32.5" height="32.5" stroke="#E2E7F0" stroke-width="1.5"/>
<rect x="1095.5" y="291.25" width="32.5" height="32.5" stroke="#E2E7F0" stroke-width="1.5"/>
<rect x="1128" y="291.25" width="32.5" height="32.5" fill="#E2E7F0" fill-opacity="0.3" stroke="#E2E7F0" stroke-width="1.5"/>
<rect x="1160.5" y="291.25" width="32.5" height="32.5" stroke="#E2E7F0" stroke-width="1.5"/>
<rect x="55.5" y="323.75" width="32.5" height="32.5" stroke="#E2E7F0" stroke-width="1.5"/>
<rect x="153" y="323.75" width="32.5" height="32.5" stroke="#E2E7F0" stroke-width="1.5"/>
<rect x="185.5" y="323.75" width="32.5" height="32.5" fill="#E2E7F0" fill-opacity="0.3" stroke="#E2E7F0" stroke-width="1.5"/>
<rect x="315.5" y="323.75" width="32.5" height="32.5" stroke="#E2E7F0" stroke-width="1.5"/>
<rect x="348" y="323.75" width="32.5" height="32.5" stroke="#E2E7F0" stroke-width="1.5"/>
<rect x="380.5" y="323.75" width="32.5" height="32.5" stroke="#E2E7F0" stroke-width="1.5"/>
<rect x="413" y="323.75" width="32.5" height="32.5" fill="#E2E7F0" fill-opacity="0.3" stroke="#E2E7F0" stroke-width="1.5"/>
<rect x="445.5" y="323.75" width="32.5" height="32.5" stroke="#E2E7F0" stroke-width="1.5"/>
<rect x="478" y="323.75" width="32.5" height="32.5" stroke="#E2E7F0" stroke-width="1.5"/>
<rect x="835.5" y="323.75" width="32.5" height="32.5" stroke="#E2E7F0" stroke-width="1.5"/>
<rect opacity="0.99" x="868" y="323.75" width="32.5" height="32.5" stroke="#E2E7F0" stroke-width="1.5"/>
<rect x="965.5" y="323.75" width="32.5" height="32.5" stroke="#E2E7F0" stroke-width="1.5"/>
<rect x="998" y="323.75" width="32.5" height="32.5" stroke="#E2E7F0" stroke-width="1.5"/>
<rect x="1030.5" y="323.75" width="32.5" height="32.5" stroke="#E2E7F0" stroke-width="1.5"/>
<rect x="1160.5" y="323.75" width="32.5" height="32.5" stroke="#E2E7F0" stroke-width="1.5"/>
<rect x="-9.5" y="356.25" width="32.5" height="32.5" stroke="#E2E7F0" stroke-width="1.5"/>
<rect x="23" y="356.25" width="32.5" height="32.5" stroke="#E2E7F0" stroke-width="1.5"/>
<rect x="55.5" y="356.25" width="32.5" height="32.5" stroke="#E2E7F0" stroke-width="1.5"/>
<rect x="88" y="356.25" width="32.5" height="32.5" stroke="#E2E7F0" stroke-width="1.5"/>
<rect x="413" y="356.25" width="32.5" height="32.5" stroke="#E2E7F0" stroke-width="1.5"/>
<rect x="445.5" y="356.25" width="32.5" height="32.5" stroke="#E2E7F0" stroke-width="1.5"/>
<rect x="478" y="356.25" width="32.5" height="32.5" stroke="#E2E7F0" stroke-width="1.5"/>
<rect x="705.5" y="356.25" width="32.5" height="32.5" stroke="#E2E7F0" stroke-width="1.5"/>
<rect x="738" y="356.25" width="32.5" height="32.5" stroke="#E2E7F0" stroke-width="1.5"/>
<rect x="770.5" y="356.25" width="32.5" height="32.5" stroke="#E2E7F0" stroke-width="1.5"/>
<rect x="803" y="356.25" width="32.5" height="32.5" stroke="#E2E7F0" stroke-width="1.5"/>
<rect x="835.5" y="356.25" width="32.5" height="32.5" fill="#E2E7F0" fill-opacity="0.3" stroke="#E2E7F0" stroke-width="1.5"/>
<rect x="868" y="356.25" width="32.5" height="32.5" stroke="#E2E7F0" stroke-width="1.5"/>
<rect x="900.5" y="356.25" width="32.5" height="32.5" stroke="#E2E7F0" stroke-width="1.5"/>
<rect x="965.5" y="356.25" width="32.5" height="32.5" stroke="#E2E7F0" stroke-width="1.5"/>
<rect x="998" y="356.25" width="32.5" height="32.5" stroke="#E2E7F0" stroke-width="1.5"/>
<rect x="1030.5" y="356.25" width="32.5" height="32.5" stroke="#E2E7F0" stroke-width="1.5"/>
<rect x="1063" y="356.25" width="32.5" height="32.5" fill="#E2E7F0" fill-opacity="0.3" stroke="#E2E7F0" stroke-width="1.5"/>
<rect x="1095.5" y="356.25" width="32.5" height="32.5" stroke="#E2E7F0" stroke-width="1.5"/>
<rect x="1128" y="356.25" width="32.5" height="32.5" stroke="#E2E7F0" stroke-width="1.5"/>
<rect x="1160.5" y="356.25" width="32.5" height="32.5" stroke="#E2E7F0" stroke-width="1.5"/>
<rect x="-9.5" y="388.75" width="32.5" height="32.5" stroke="#E2E7F0" stroke-width="1.5"/>
<rect x="23" y="388.75" width="32.5" height="32.5" fill="#E2E7F0" fill-opacity="0.3" stroke="#E2E7F0" stroke-width="1.5"/>
<rect x="55.5" y="388.75" width="32.5" height="32.5" stroke="#E2E7F0" stroke-width="1.5"/>
<rect x="88" y="388.75" width="32.5" height="32.5" stroke="#E2E7F0" stroke-width="1.5"/>
<rect x="120.5" y="388.75" width="32.5" height="32.5" stroke="#E2E7F0" stroke-width="1.5"/>
<rect x="153" y="388.75" width="32.5" height="32.5" stroke="#E2E7F0" stroke-width="1.5"/>
<rect x="185.5" y="388.75" width="32.5" height="32.5" stroke="#E2E7F0" stroke-width="1.5"/>
<rect x="218" y="388.75" width="32.5" height="32.5" stroke="#E2E7F0" stroke-width="1.5"/>
<rect x="250.5" y="388.75" width="32.5" height="32.5" stroke="#E2E7F0" stroke-width="1.5"/>
<rect x="283" y="388.75" width="32.5" height="32.5" stroke="#E2E7F0" stroke-width="1.5"/>
<rect x="315.5" y="388.75" width="32.5" height="32.5" stroke="#E2E7F0" stroke-width="1.5"/>
<rect x="348" y="388.75" width="32.5" height="32.5" fill="#E2E7F0" fill-opacity="0.3" stroke="#E2E7F0" stroke-width="1.5"/>
<rect x="640.5" y="388.75" width="32.5" height="32.5" stroke="#E2E7F0" stroke-width="1.5"/>
<rect x="673" y="388.75" width="32.5" height="32.5" stroke="#E2E7F0" stroke-width="1.5"/>
<rect x="705.5" y="388.75" width="32.5" height="32.5" stroke="#E2E7F0" stroke-width="1.5"/>
<rect x="738" y="388.75" width="32.5" height="32.5" stroke="#E2E7F0" stroke-width="1.5"/>
<rect x="770.5" y="388.75" width="32.5" height="32.5" fill="#E2E7F0" fill-opacity="0.3" stroke="#E2E7F0" stroke-width="1.5"/>
<rect x="803" y="388.75" width="32.5" height="32.5" stroke="#E2E7F0" stroke-width="1.5"/>
<rect x="835.5" y="388.75" width="32.5" height="32.5" stroke="#E2E7F0" stroke-width="1.5"/>
<rect x="868" y="388.75" width="32.5" height="32.5" stroke="#E2E7F0" stroke-width="1.5"/>
<rect x="900.5" y="388.75" width="32.5" height="32.5" stroke="#E2E7F0" stroke-width="1.5"/>
<rect x="933" y="388.75" width="32.5" height="32.5" stroke="#E2E7F0" stroke-width="1.5"/>
<rect x="965.5" y="388.75" width="32.5" height="32.5" stroke="#E2E7F0" stroke-width="1.5"/>
<rect x="998" y="388.75" width="32.5" height="32.5" stroke="#E2E7F0" stroke-width="1.5"/>
<rect x="1030.5" y="388.75" width="32.5" height="32.5" stroke="#E2E7F0" stroke-width="1.5"/>
<rect x="1063" y="388.75" width="32.5" height="32.5" stroke="#E2E7F0" stroke-width="1.5"/>
<rect x="1095.5" y="388.75" width="32.5" height="32.5" stroke="#E2E7F0" stroke-width="1.5"/>
<rect x="1128" y="388.75" width="32.5" height="32.5" stroke="#E2E7F0" stroke-width="1.5"/>
<rect x="1160.5" y="388.75" width="32.5" height="32.5" stroke="#E2E7F0" stroke-width="1.5"/>
<rect x="-9.5" y="421.25" width="32.5" height="32.5" stroke="#E2E7F0" stroke-width="1.5"/>
<rect x="23" y="421.25" width="32.5" height="32.5" stroke="#E2E7F0" stroke-width="1.5"/>
<rect x="55.5" y="421.25" width="32.5" height="32.5" stroke="#E2E7F0" stroke-width="1.5"/>
<rect x="88" y="421.25" width="32.5" height="32.5" stroke="#E2E7F0" stroke-width="1.5"/>
<rect x="120.5" y="421.25" width="32.5" height="32.5" fill="#E2E7F0" fill-opacity="0.3" stroke="#E2E7F0" stroke-width="1.5"/>
<rect x="283" y="421.25" width="32.5" height="32.5" stroke="#E2E7F0" stroke-width="1.5"/>
<rect x="315.5" y="421.25" width="32.5" height="32.5" stroke="#E2E7F0" stroke-width="1.5"/>
<rect x="640.5" y="421.25" width="32.5" height="32.5" stroke="#E2E7F0" stroke-width="1.5"/>
<rect x="673" y="421.25" width="32.5" height="32.5" stroke="#E2E7F0" stroke-width="1.5"/>
<rect x="705.5" y="421.25" width="32.5" height="32.5" stroke="#E2E7F0" stroke-width="1.5"/>
<rect x="738" y="421.25" width="32.5" height="32.5" stroke="#E2E7F0" stroke-width="1.5"/>
<rect x="770.5" y="421.25" width="32.5" height="32.5" stroke="#E2E7F0" stroke-width="1.5"/>
<rect x="803" y="421.25" width="32.5" height="32.5" stroke="#E2E7F0" stroke-width="1.5"/>
<rect x="835.5" y="421.25" width="32.5" height="32.5" stroke="#E2E7F0" stroke-width="1.5"/>
<rect x="868" y="421.25" width="32.5" height="32.5" stroke="#E2E7F0" stroke-width="1.5"/>
<rect x="1063" y="421.25" width="32.5" height="32.5" stroke="#E2E7F0" stroke-width="1.5"/>
<rect x="1095.5" y="421.25" width="32.5" height="32.5" stroke="#E2E7F0" stroke-width="1.5"/>
<rect x="1128" y="421.25" width="32.5" height="32.5" stroke="#E2E7F0" stroke-width="1.5"/>
<rect x="1160.5" y="421.25" width="32.5" height="32.5" stroke="#E2E7F0" stroke-width="1.5"/>
<rect x="-9.5" y="453.75" width="32.5" height="32.5" stroke="#E2E7F0" stroke-width="1.5"/>
<rect x="23" y="453.75" width="32.5" height="32.5" stroke="#E2E7F0" stroke-width="1.5"/>
<rect x="55.5" y="453.75" width="32.5" height="32.5" stroke="#E2E7F0" stroke-width="1.5"/>
<rect x="88" y="453.75" width="32.5" height="32.5" stroke="#E2E7F0" stroke-width="1.5"/>
<rect x="120.5" y="453.75" width="32.5" height="32.5" stroke="#E2E7F0" stroke-width="1.5"/>
<rect x="153" y="453.75" width="32.5" height="32.5" stroke="#E2E7F0" stroke-width="1.5"/>
<rect x="185.5" y="453.75" width="32.5" height="32.5" stroke="#E2E7F0" stroke-width="1.5"/>
<rect x="250.5" y="453.75" width="32.5" height="32.5" stroke="#E2E7F0" stroke-width="1.5"/>
<rect x="283" y="453.75" width="32.5" height="32.5" stroke="#E2E7F0" stroke-width="1.5"/>
<rect x="315.5" y="453.75" width="32.5" height="32.5" stroke="#E2E7F0" stroke-width="1.5"/>
<rect x="348" y="453.75" width="32.5" height="32.5" stroke="#E2E7F0" stroke-width="1.5"/>
<rect x="575.5" y="453.75" width="32.5" height="32.5" stroke="#E2E7F0" stroke-width="1.5"/>
<rect x="608" y="453.75" width="32.5" height="32.5" stroke="#E2E7F0" stroke-width="1.5"/>
<rect x="640.5" y="453.75" width="32.5" height="32.5" stroke="#E2E7F0" stroke-width="1.5"/>
<rect x="673" y="453.75" width="32.5" height="32.5" stroke="#E2E7F0" stroke-width="1.5"/>
<rect x="705.5" y="453.75" width="32.5" height="32.5" stroke="#E2E7F0" stroke-width="1.5"/>
<rect x="738" y="453.75" width="32.5" height="32.5" stroke="#E2E7F0" stroke-width="1.5"/>
<rect x="770.5" y="453.75" width="32.5" height="32.5" stroke="#E2E7F0" stroke-width="1.5"/>
<rect x="835.5" y="453.75" width="32.5" height="32.5" stroke="#E2E7F0" stroke-width="1.5"/>
<rect x="900.5" y="453.75" width="32.5" height="32.5" fill="#E2E7F0" fill-opacity="0.3" stroke="#E2E7F0" stroke-width="1.5"/>
<rect x="933" y="453.75" width="32.5" height="32.5" stroke="#E2E7F0" stroke-width="1.5"/>
<rect x="1128" y="453.75" width="32.5" height="32.5" stroke="#E2E7F0" stroke-width="1.5"/>
<rect x="1160.5" y="453.75" width="32.5" height="32.5" fill="#E2E7F0" fill-opacity="0.3" stroke="#E2E7F0" stroke-width="1.5"/>
<rect x="-9.5" y="486.25" width="32.5" height="32.5" stroke="#E2E7F0" stroke-width="1.5"/>
<rect x="23" y="486.25" width="32.5" height="32.5" stroke="#E2E7F0" stroke-width="1.5"/>
<rect x="55.5" y="486.25" width="32.5" height="32.5" stroke="#E2E7F0" stroke-width="1.5"/>
<rect x="88" y="486.25" width="32.5" height="32.5" stroke="#E2E7F0" stroke-width="1.5"/>
<rect x="120.5" y="486.25" width="32.5" height="32.5" stroke="#E2E7F0" stroke-width="1.5"/>
<rect x="315.5" y="486.25" width="32.5" height="32.5" stroke="#E2E7F0" stroke-width="1.5"/>
<rect x="348" y="486.25" width="32.5" height="32.5" stroke="#E2E7F0" stroke-width="1.5"/>
<rect x="380.5" y="486.25" width="32.5" height="32.5" stroke="#E2E7F0" stroke-width="1.5"/>
<rect x="413" y="486.25" width="32.5" height="32.5" stroke="#E2E7F0" stroke-width="1.5"/>
<rect x="445.5" y="486.25" width="32.5" height="32.5" stroke="#E2E7F0" stroke-width="1.5"/>
<rect x="478" y="486.25" width="32.5" height="32.5" stroke="#E2E7F0" stroke-width="1.5"/>
<rect x="965.5" y="486.25" width="32.5" height="32.5" stroke="#E2E7F0" stroke-width="1.5"/>
<rect x="998" y="486.25" width="32.5" height="32.5" fill="#E2E7F0" fill-opacity="0.3" stroke="#E2E7F0" stroke-width="1.5"/>
<rect x="1030.5" y="486.25" width="32.5" height="32.5" stroke="#E2E7F0" stroke-width="1.5"/>
<rect x="1063" y="486.25" width="32.5" height="32.5" stroke="#E2E7F0" stroke-width="1.5"/>
<rect x="1095.5" y="486.25" width="32.5" height="32.5" stroke="#E2E7F0" stroke-width="1.5"/>
<rect x="1128" y="486.25" width="32.5" height="32.5" stroke="#E2E7F0" stroke-width="1.5"/>
<rect x="1160.5" y="486.25" width="32.5" height="32.5" stroke="#E2E7F0" stroke-width="1.5"/>
<path d="M152.75 150.75V210.75" stroke="url(#paint1_linear_222_13086)" stroke-width="1.5" stroke-linecap="round" strokeLinejoin="round"/>
<path d="M965.75 248.75V188.75" stroke="url(#paint2_linear_222_13086)" stroke-width="1.5" stroke-linecap="round" strokeLinejoin="round"/>
<path d="M379.75 63.25H439.75" stroke="url(#paint3_linear_222_13086)" stroke-width="1.5" stroke-linecap="round" strokeLinejoin="round"/>
<path d="M787.75 63.75H847.75" stroke="url(#paint4_linear_222_13086)" stroke-width="1.5" stroke-linecap="round" strokeLinejoin="round"/>
</g>
</g>
<defs>
<radialGradient id="paint0_radial_222_13086" cx="0" cy="0" r="1" gradientUnits="userSpaceOnUse" gradientTransform="translate(592 149) rotate(90) scale(381 648)">
<stop stop-color="#D9D9D9"/>
<stop offset="1" stop-color="#D9D9D9" stop-opacity="0"/>
</radialGradient>
<linearGradient id="paint1_linear_222_13086" x1="152" y1="151" x2="124.642" y2="193.311" gradientUnits="userSpaceOnUse">
<stop stop-color="#71CCFF"/>
<stop offset="1" stop-color="#6C7EFF" stop-opacity="0"/>
</linearGradient>
<linearGradient id="paint2_linear_222_13086" x1="965" y1="248.5" x2="937.642" y2="206.189" gradientUnits="userSpaceOnUse">
<stop stop-color="#71CCFF"/>
<stop offset="1" stop-color="#6C7EFF" stop-opacity="0"/>
</linearGradient>
<linearGradient id="paint3_linear_222_13086" x1="380" y1="64" x2="422.311" y2="91.3578" gradientUnits="userSpaceOnUse">
<stop stop-color="#71CCFF"/>
<stop offset="1" stop-color="#6C7EFF" stop-opacity="0"/>
</linearGradient>
<linearGradient id="paint4_linear_222_13086" x1="788" y1="64.5" x2="830.311" y2="91.8578" gradientUnits="userSpaceOnUse">
<stop stop-color="#71CCFF"/>
<stop offset="1" stop-color="#6C7EFF" stop-opacity="0"/>
</linearGradient>
<clipPath id="clip0_222_13086">
<rect width="1184" height="519" fill="white"/>
</clipPath>
</defs>
</svg>
