<svg width="135" height="27" viewBox="0 0 135 27" fill="none" xmlns="http://www.w3.org/2000/svg">
<path d="M47.1862 19.3175H39.9179L39.0223 21.8865C38.8766 22.3046 38.3832 22.6467 37.926 22.6467H34.0002C33.543 22.6467 33.3064 22.311 33.4745 21.9008L40.5895 4.53706C40.7575 4.12684 41.2692 3.79122 41.7264 3.79122H45.408C45.8653 3.79122 46.3765 4.12702 46.544 4.53744L53.6306 21.9004C53.7981 22.3109 53.561 22.6467 53.1038 22.6467H49.178C48.7208 22.6467 48.2275 22.3046 48.0817 21.8865L47.1862 19.3175ZM45.9035 15.6053L43.552 8.77019L41.2006 15.6053H45.9035ZM70.3652 22.6467C69.908 22.6467 69.3403 22.3379 69.1037 21.9604L65.7471 16.607L62.3906 21.9604C62.1539 22.3379 61.5862 22.6467 61.129 22.6467H56.3479C55.8907 22.6467 55.7291 22.3496 55.9887 21.9866L62.4488 12.9538L56.559 4.45786C56.3048 4.09121 56.471 3.79122 56.9282 3.79122H61.3427C61.7999 3.79122 62.3709 4.09808 62.6116 4.47312L65.7471 9.35955L68.8547 4.47474C69.0938 4.0988 69.6636 3.79122 70.1209 3.79122H74.566C75.0233 3.79122 75.1882 4.09046 74.9326 4.45619L69.0148 12.9243L75.5051 21.9868C75.765 22.3497 75.6035 22.6467 75.1463 22.6467H70.3652ZM83.9908 21.8447C83.9908 22.2858 83.6167 22.6467 83.1595 22.6467H79.6304C79.1732 22.6467 78.7991 22.2858 78.7991 21.8447V4.59321C78.7991 4.15212 79.1732 3.79122 79.6304 3.79122H83.1595C83.6167 3.79122 83.9908 4.15212 83.9908 4.59321V21.8447ZM87.1173 13.16C87.1173 7.68018 91.3926 3.261 97.9585 3.261C104.524 3.261 108.8 7.68018 108.8 13.16C108.8 18.6694 104.524 23.0886 97.9585 23.0886C91.3926 23.0886 87.1173 18.6694 87.1173 13.16ZM103.486 13.16C103.486 10.3023 101.409 7.70955 97.9585 7.70955C94.5383 7.70955 92.431 10.3023 92.431 13.16C92.431 16.0179 94.5383 18.6694 97.9585 18.6694C101.379 18.6694 103.486 16.0179 103.486 13.16ZM130.959 22.6467C130.502 22.6467 130.08 22.2888 130.021 21.8513L128.662 11.7459L124.738 21.8952C124.578 22.3085 124.073 22.6467 123.616 22.6467H121.889C121.432 22.6467 120.928 22.3082 120.769 21.8945L116.843 11.6574L115.484 21.8512C115.425 22.2887 115.003 22.6467 114.546 22.6467H111.231C110.774 22.6467 110.451 22.2891 110.513 21.8521L112.974 4.58574C113.036 4.14876 113.461 3.79122 113.918 3.79122H116.989C117.446 3.79122 117.953 4.12861 118.116 4.54098L122.737 16.283L127.388 4.5404C127.551 4.12834 128.059 3.79122 128.516 3.79122H131.587C132.044 3.79122 132.469 4.14876 132.531 4.58574L134.992 21.8521C135.055 22.2891 134.731 22.6467 134.274 22.6467H130.959ZM26.2993 18.0486L20.64 8.53881C20.3805 8.10174 19.7411 7.74414 19.2189 7.74414H15.6857C14.8645 7.74414 14.5279 7.18235 14.9375 6.49573L16.875 3.24842C17.0288 2.9907 17.0285 2.67343 16.8742 2.41599C16.7199 2.15855 16.435 2 16.1268 2H11.1979C10.6758 2 10.0349 2.3568 9.77368 2.7929L0.19608 18.7809C-0.0652427 19.217 -0.065343 19.9307 0.195678 20.3669L2.66008 24.4849C3.07072 25.171 3.7441 25.1718 4.15646 24.4867L6.08205 21.2874C6.49451 20.6023 7.16778 20.6031 7.57843 21.2892L9.32419 24.2064C9.58522 24.6426 10.226 24.9995 10.7481 24.9995H22.1376C22.6597 24.9995 23.3004 24.6426 23.5615 24.2064L26.2965 19.6363C26.5575 19.2001 26.5588 18.4857 26.2993 18.0486ZM18.6564 17.5909C19.0645 18.2784 18.7265 18.8409 17.9052 18.8409H9.04601C8.22481 18.8409 7.88883 18.2796 8.29948 17.5935L12.7325 10.186C13.1431 9.49988 13.8149 9.49991 14.2256 10.186L18.6564 17.5909Z" fill="white"/>
</svg>
